{
    "asset" : {
        "generator" : "Khronos glTF Blender I/O v1.2.75",
        "version" : "2.0"
    },
    "scene" : 0,
    "scenes" : [
        {
            "name" : "Scene",
            "nodes" : [
                0,
                1
            ]
        }
    ],
    "nodes" : [
        {
            "mesh" : 0,
            "name" : "walk"
        },
        {
            "mesh" : 1,
            "name" : "railing"
        }
    ],
    "materials" : [
        {
            "doubleSided" : true,
            "emissiveFactor" : [
                0,
                0,
                0
            ],
            "name" : "metallic",
            "pbrMetallicRoughness" : {
                "baseColorFactor" : [
                    0.13286346197128296,
                    0.13286346197128296,
                    0.13286346197128296,
                    1
                ],
                "metallicFactor" : 1,
                "roughnessFactor" : 0.5
            }
        }
    ],
    "meshes" : [
        {
            "name" : "Plane",
            "primitives" : [
                {
                    "attributes" : {
                        "POSITION" : 0,
                        "NORMAL" : 1,
                        "TEXCOORD_0" : 2
                    },
                    "indices" : 3,
                    "material" : 0
                }
            ]
        },
        {
            "name" : "Plane.001",
            "primitives" : [
                {
                    "attributes" : {
                        "POSITION" : 4,
                        "NORMAL" : 5,
                        "TEXCOORD_0" : 6
                    },
                    "indices" : 7,
                    "material" : 0
                }
            ]
        }
    ],
    "accessors" : [
        {
            "bufferView" : 0,
            "componentType" : 5126,
            "count" : 3768,
            "max" : [
                2.6671102046966553,
                0.036000002175569534,
                0.8253298401832581
            ],
            "min" : [
                -2.6671102046966553,
                -0.036000002175569534,
                -0.8253298401832581
            ],
            "type" : "VEC3"
        },
        {
            "bufferView" : 1,
            "componentType" : 5126,
            "count" : 3768,
            "type" : "VEC3"
        },
        {
            "bufferView" : 2,
            "componentType" : 5126,
            "count" : 3768,
            "type" : "VEC2"
        },
        {
            "bufferView" : 3,
            "componentType" : 5123,
            "count" : 6144,
            "type" : "SCALAR"
        },
        {
            "bufferView" : 4,
            "componentType" : 5126,
            "count" : 612,
            "max" : [
                2.6671102046966553,
                1.1955327987670898,
                0.847369372844696
            ],
            "min" : [
                -2.6671102046966553,
                0,
                -0.847369372844696
            ],
            "type" : "VEC3"
        },
        {
            "bufferView" : 5,
            "componentType" : 5126,
            "count" : 612,
            "type" : "VEC3"
        },
        {
            "bufferView" : 6,
            "componentType" : 5126,
            "count" : 612,
            "type" : "VEC2"
        },
        {
            "bufferView" : 7,
            "componentType" : 5123,
            "count" : 960,
            "type" : "SCALAR"
        }
    ],
    "bufferViews" : [
        {
            "buffer" : 0,
            "byteLength" : 45216,
            "byteOffset" : 0
        },
        {
            "buffer" : 0,
            "byteLength" : 45216,
            "byteOffset" : 45216
        },
        {
            "buffer" : 0,
            "byteLength" : 30144,
            "byteOffset" : 90432
        },
        {
            "buffer" : 0,
            "byteLength" : 12288,
            "byteOffset" : 120576
        },
        {
            "buffer" : 0,
            "byteLength" : 7344,
            "byteOffset" : 132864
        },
        {
            "buffer" : 0,
            "byteLength" : 7344,
            "byteOffset" : 140208
        },
        {
            "buffer" : 0,
            "byteLength" : 4896,
            "byteOffset" : 147552
        },
        {
            "buffer" : 0,
            "byteLength" : 1920,
            "byteOffset" : 152448
        }
    ],
    "buffers" : [
        {
            "byteLength" : 154368,
            "uri" : "data:application/octet-stream;base64,"
        }
    ]
}
